<svg xmlns="http://www.w3.org/2000/svg" viewBox="0 0 640 420" role="img">
  <rect width="640" height="420" rx="14" fill="#FBFAF6"/>
  <rect width="640" height="420" rx="14" fill="none" stroke="#E9E6DC" stroke-width="2"/>
  <rect x="0" y="0" width="640" height="44" rx="14" fill="#E9E6DC"/>
  <rect x="0" y="22" width="640" height="22" fill="#E9E6DC"/>
  <circle cx="26" cy="22" r="6" fill="#EF3F18" opacity="0.75"/>
  <circle cx="48" cy="22" r="6" fill="#F98E12" opacity="0.75"/>
  <circle cx="70" cy="22" r="6" fill="#7C9070" opacity="0.85"/>
  <rect x="96" y="12" width="140" height="20" rx="10" fill="#FBFAF6"/>
  <rect x="36" y="72" width="110" height="14" rx="7" fill="#17A2E8"/>
  <rect x="420" y="72" width="44" height="12" rx="6" fill="#E9E6DC"/>
  <rect x="476" y="72" width="44" height="12" rx="6" fill="#E9E6DC"/>
  <rect x="532" y="70" width="72" height="18" rx="9" fill="#17A2E8"/>
  <rect x="36" y="112" width="568" height="180" rx="10" fill="#17A2E8" opacity="0.14"/>
  <circle cx="540" cy="150" r="22" fill="#F98E12" opacity="0.8"/>
  <path d="M120 246 l 70 -58 l 70 58 z" fill="#EF3F18" opacity="0.75"/>
  <rect x="138" y="246" width="104" height="46" fill="#2B57DB" opacity="0.8"/>
  <rect x="168" y="262" width="20" height="30" rx="2" fill="#FBFAF6"/>
  <rect x="206" y="260" width="18" height="16" rx="2" fill="#FBFAF6" opacity="0.9"/>
  <path d="M300 292 q 60 -18 120 0 t 184 0 v 0 h -304 z" fill="#17A2E8" opacity="0.5"/>
  <rect x="36" y="316" width="270" height="9" rx="4.5" fill="#E9E6DC"/>
  <rect x="36" y="334" width="270" height="9" rx="4.5" fill="#E9E6DC"/>
  <rect x="36" y="352" width="162" height="9" rx="4.5" fill="#E9E6DC"/>
  <rect x="330" y="316" width="160" height="30" rx="15" fill="#EF3F18"/>
  <rect x="352" y="326" width="116" height="10" rx="5" fill="#FBFAF6"/>
</svg>