<svg xmlns="http://www.w3.org/2000/svg" viewBox="0 0 640 420" role="img">
  <rect width="640" height="420" rx="14" fill="#FBFAF6"/>
  <rect width="640" height="420" rx="14" fill="none" stroke="#E9E6DC" stroke-width="2"/>
  <rect x="0" y="0" width="640" height="44" rx="14" fill="#E9E6DC"/>
  <rect x="0" y="22" width="640" height="22" fill="#E9E6DC"/>
  <circle cx="26" cy="22" r="6" fill="#EF3F18" opacity="0.75"/>
  <circle cx="48" cy="22" r="6" fill="#F98E12" opacity="0.75"/>
  <circle cx="70" cy="22" r="6" fill="#7C9070" opacity="0.85"/>
  <rect x="96" y="12" width="150" height="20" rx="10" fill="#FBFAF6"/>
  <rect x="36" y="72" width="110" height="14" rx="7" fill="#2B57DB"/>
  <rect x="420" y="72" width="44" height="12" rx="6" fill="#E9E6DC"/>
  <rect x="476" y="72" width="44" height="12" rx="6" fill="#E9E6DC"/>
  <rect x="532" y="70" width="72" height="18" rx="9" fill="#2B57DB"/>
  <rect x="200" y="120" width="240" height="150" rx="12" fill="#2B57DB" opacity="0.85"/>
  <rect x="216" y="136" width="208" height="118" rx="6" fill="#FBFAF6"/>
  <path d="M282 210 q 18 -34 46 -22 q 4 -16 24 -14 q 26 2 20 26 q 30 4 18 26 q -10 18 -40 12 l -14 18 l -4 -20 q -34 6 -50 -26 z" fill="#17A2E8" opacity="0.9"/>
  <path d="M296 272 l -14 22 h 76 l -14 -22 z" fill="#2B57DB" opacity="0.6"/>
  <rect x="186" y="316" width="268" height="9" rx="4.5" fill="#E9E6DC"/>
  <rect x="186" y="334" width="160" height="9" rx="4.5" fill="#E9E6DC"/>
  <rect x="252" y="360" width="136" height="26" rx="13" fill="#F98E12" opacity="0.85"/>
</svg>