<svg xmlns="http://www.w3.org/2000/svg" viewBox="0 0 640 420" role="img">
  <rect width="640" height="420" rx="14" fill="#FBFAF6"/>
  <rect width="640" height="420" rx="14" fill="none" stroke="#E9E6DC" stroke-width="2"/>
  <rect x="0" y="0" width="640" height="44" rx="14" fill="#E9E6DC"/>
  <rect x="0" y="22" width="640" height="22" fill="#E9E6DC"/>
  <circle cx="26" cy="22" r="6" fill="#EF3F18" opacity="0.75"/>
  <circle cx="48" cy="22" r="6" fill="#F98E12" opacity="0.75"/>
  <circle cx="70" cy="22" r="6" fill="#7C9070" opacity="0.85"/>
  <rect x="96" y="12" width="150" height="20" rx="10" fill="#FBFAF6"/>
  <rect x="36" y="72" width="110" height="14" rx="7" fill="#17A2E8"/>
  <rect x="420" y="72" width="44" height="12" rx="6" fill="#E9E6DC"/>
  <rect x="476" y="72" width="44" height="12" rx="6" fill="#E9E6DC"/>
  <rect x="532" y="70" width="72" height="18" rx="9" fill="#17A2E8"/>
  <rect x="36" y="112" width="360" height="270" rx="10" fill="#E9E6DC" opacity="0.55"/>
  <rect x="56" y="132" width="72" height="50" rx="8" fill="#2B57DB" opacity="0.75"/>
  <rect x="140" y="132" width="72" height="50" rx="8" fill="#17A2E8" opacity="0.35"/>
  <rect x="224" y="132" width="72" height="50" rx="8" fill="#17A2E8" opacity="0.35"/>
  <rect x="308" y="132" width="72" height="50" rx="8" fill="#2B57DB" opacity="0.75"/>
  <rect x="56" y="194" width="72" height="50" rx="8" fill="#17A2E8" opacity="0.35"/>
  <rect x="140" y="194" width="72" height="50" rx="8" fill="#17A2E8" opacity="0.35"/>
  <rect x="224" y="194" width="72" height="50" rx="8" fill="#2B57DB" opacity="0.75"/>
  <rect x="308" y="194" width="72" height="50" rx="8" fill="#17A2E8" opacity="0.35"/>
  <rect x="56" y="256" width="72" height="50" rx="8" fill="#17A2E8" opacity="0.35"/>
  <rect x="140" y="256" width="72" height="50" rx="8" fill="#2B57DB" opacity="0.75"/>
  <rect x="224" y="256" width="72" height="50" rx="8" fill="#17A2E8" opacity="0.35"/>
  <rect x="308" y="256" width="72" height="50" rx="8" fill="#17A2E8" opacity="0.35"/>
  <rect x="56" y="318" width="72" height="50" rx="8" fill="#2B57DB" opacity="0.75"/>
  <rect x="140" y="318" width="72" height="50" rx="8" fill="#17A2E8" opacity="0.35"/>
  <rect x="224" y="318" width="72" height="50" rx="8" fill="#17A2E8" opacity="0.35"/>
  <rect x="308" y="318" width="72" height="50" rx="8" fill="#2B57DB" opacity="0.75"/>
  <circle cx="516" cy="200" r="66" fill="#17A2E8" opacity="0.2"/>
  <ellipse cx="516" cy="186" rx="40" ry="48" fill="#2B57DB"/>
  <rect x="506" y="230" width="20" height="52" rx="9" fill="#2B57DB"/>
  <circle cx="568" cy="262" r="16" fill="#F98E12"/>
  <circle cx="562" cy="256" r="2.5" fill="#FBFAF6"/><circle cx="572" cy="258" r="2.5" fill="#FBFAF6"/><circle cx="566" cy="266" r="2.5" fill="#FBFAF6"/>
  <rect x="440" y="310" width="164" height="9" rx="4.5" fill="#E9E6DC"/>
  <rect x="440" y="328" width="164" height="9" rx="4.5" fill="#E9E6DC"/>
  <rect x="440" y="346" width="98" height="9" rx="4.5" fill="#E9E6DC"/>
</svg>