<svg xmlns="http://www.w3.org/2000/svg" viewBox="0 0 640 420" role="img">
  <rect width="640" height="420" rx="14" fill="#FBFAF6"/>
  <rect width="640" height="420" rx="14" fill="none" stroke="#E9E6DC" stroke-width="2"/>
  <rect x="0" y="0" width="640" height="44" rx="14" fill="#E9E6DC"/>
  <rect x="0" y="22" width="640" height="22" fill="#E9E6DC"/>
  <circle cx="26" cy="22" r="6" fill="#EF3F18" opacity="0.75"/>
  <circle cx="48" cy="22" r="6" fill="#F98E12" opacity="0.75"/>
  <circle cx="70" cy="22" r="6" fill="#7C9070" opacity="0.85"/>
  <rect x="96" y="12" width="170" height="20" rx="10" fill="#FBFAF6"/>
  <rect x="36" y="72" width="110" height="14" rx="7" fill="#2B57DB"/>
  <rect x="420" y="72" width="44" height="12" rx="6" fill="#E9E6DC"/>
  <rect x="476" y="72" width="44" height="12" rx="6" fill="#E9E6DC"/>
  <rect x="532" y="70" width="72" height="18" rx="9" fill="#2B57DB"/>
  <path d="M70 260 v -90 a 62 62 0 0 1 124 0 v 90 z" fill="#2B57DB" opacity="0.75"/>
  <path d="M122 260 v -86 a 10 34 0 0 1 20 0 v 86 z" fill="#FBFAF6" opacity="0.85"/>
  <path d="M260 260 v -90 a 62 62 0 0 1 124 0 v 90 z" fill="#17A2E8" opacity="0.6"/>
  <path d="M312 260 v -86 a 10 34 0 0 1 20 0 v 86 z" fill="#FBFAF6" opacity="0.85"/>
  <path d="M450 260 v -90 a 62 62 0 0 1 124 0 v 90 z" fill="#2B57DB" opacity="0.45"/>
  <path d="M502 260 v -86 a 10 34 0 0 1 20 0 v 86 z" fill="#FBFAF6" opacity="0.85"/>
  <rect x="36" y="290" width="568" height="2" fill="#E9E6DC"/>
  <rect x="36" y="312" width="260" height="9" rx="4.5" fill="#E9E6DC"/>
  <rect x="36" y="330" width="260" height="9" rx="4.5" fill="#E9E6DC"/>
  <rect x="36" y="348" width="156" height="9" rx="4.5" fill="#E9E6DC"/>
  <rect x="330" y="312" width="274" height="60" rx="10" fill="#F98E12" opacity="0.25"/>
  <rect x="348" y="330" width="150" height="10" rx="5" fill="#0B0B10" opacity="0.5"/>
  <rect x="348" y="348" width="90" height="10" rx="5" fill="#0B0B10" opacity="0.3"/>
</svg>