<svg xmlns="http://www.w3.org/2000/svg" viewBox="0 0 120 120" width="120" height="120"><linearGradient id="gs" x1="0" y1="1" x2="1" y2="0"><stop offset="0%" stop-color="#2B57DB"/><stop offset="30%" stop-color="#17A2E8"/><stop offset="72%" stop-color="#EF3F18"/><stop offset="100%" stop-color="#F98E12"/></linearGradient><path d="M 80.06 66.58 L 79.94 66.58 L 79.83 66.57 L 79.71 66.57 L 79.48 66.57 L 79.26 66.58 L 79.03 66.6 L 78.8 66.62 L 78.57 66.65 L 78.34 66.68 L 78.12 66.72 L 77.89 66.76 L 77.67 66.81 L 77.45 66.87 L 77.23 66.93 L 77.01 67.0 L 76.79 67.07 L 76.57 67.15 L 76.36 67.24 L 76.15 67.33 L 75.94 67.42 L 75.74 67.53 L 75.53 67.63 L 75.33 67.75 L 75.14 67.86 L 74.94 67.98 L 74.75 68.11 L 74.56 68.24 L 74.38 68.38 L 74.2 68.52 L 74.02 68.67 L 73.85 68.82 L 73.68 68.98 L 73.52 69.14 L 73.36 69.3 L 73.2 69.47 L 73.05 69.64 L 72.91 69.82 L 72.76 70.0 L 72.63 70.18 L 72.49 70.37 L 72.37 70.56 L 72.24 70.76 L 72.13 70.95 L 72.01 71.15 L 71.91 71.36 L 71.81 71.56 L 71.71 71.77 L 71.62 71.98 L 71.53 72.19 L 71.45 72.41 L 71.38 72.63 L 71.31 72.84 L 71.25 73.07 L 71.19 73.29 L 71.14 73.51 L 71.1 73.74 L 71.06 73.96 L 71.03 74.19 L 71.0 74.42 L 70.98 74.65 L 70.96 74.87 L 70.96 75.1 L 70.95 75.33 L 70.96 75.68 L 70.97 76.02 L 70.99 76.36 L 71.02 76.71 L 71.06 77.05 L 71.11 77.39 L 71.17 77.73 L 71.24 78.07 L 71.32 78.4 L 71.4 78.73 L 71.49 79.07 L 71.6 79.39 L 71.71 79.72 L 71.83 80.04 L 71.95 80.36 L 72.09 80.68 L 72.23 80.99 L 72.38 81.3 L 72.55 81.6 L 72.71 81.9 L 72.89 82.2 L 73.07 82.49 L 73.26 82.78 L 73.46 83.06 L 73.67 83.33 L 73.88 83.6 L 74.1 83.87 L 74.33 84.13 L 74.56 84.38 L 74.8 84.63 L 75.05 84.87 L 75.3 85.1 L 75.56 85.33 L 75.82 85.55 L 76.09 85.76 L 76.37 85.97 L 76.65 86.16 L 76.94 86.36 L 77.23 86.54 L 77.52 86.72 L 77.82 86.88 L 78.13 87.04 L 78.44 87.2 L 78.75 87.34 L 79.07 87.48 L 79.39 87.6 L 79.71 87.72 L 80.03 87.83 L 80.36 87.93 L 80.69 88.03 L 81.03 88.11 L 81.36 88.19 L 81.7 88.26 L 82.04 88.31 L 82.38 88.36 L 82.72 88.4 L 83.06 88.44 L 83.41 88.46 L 83.75 88.47 L 84.1 88.48 L 84.67 88.47 L 85.24 88.45 L 85.81 88.41 L 86.38 88.36 L 86.95 88.29 L 87.52 88.21 L 88.09 88.11 L 88.65 88.0 L 89.21 87.87 L 89.76 87.73 L 90.32 87.57 L 90.86 87.4 L 91.41 87.22 L 91.95 87.02 L 92.48 86.81 L 93.0 86.58 L 93.53 86.34 L 94.04 86.09 L 94.55 85.82 L 95.05 85.54 L 95.54 85.25 L 96.03 84.94 L 96.5 84.62 L 96.97 84.29 L 97.43 83.95 L 97.88 83.59 L 98.32 83.23 L 98.75 82.85 L 99.17 82.46 L 99.58 82.06 L 99.98 81.65 L 100.37 81.23 L 100.75 80.8 L 101.12 80.36 L 101.47 79.91 L 101.82 79.45 L 102.15 78.98 L 102.47 78.5 L 102.77 78.02 L 103.07 77.52 L 103.35 77.02 L 103.61 76.52 L 103.87 76.0 L 104.11 75.48 L 104.33 74.95 L 104.55 74.42 L 104.74 73.88 L 104.93 73.34 L 105.1 72.79 L 105.25 72.24 L 105.39 71.68 L 105.52 71.13 L 105.63 70.56 L 105.73 70.0 L 105.81 69.43 L 105.88 68.86 L 105.93 68.29 L 105.97 67.72 L 105.99 67.14 L 106.0 66.57 L 105.99 65.65 L 105.95 64.74 L 105.89 63.82 L 105.81 62.91 L 105.7 62.0 L 105.57 61.09 L 105.41 60.18 L 105.23 59.28 L 105.03 58.39 L 104.81 57.5 L 104.56 56.62 L 104.28 55.74 L 103.99 54.87 L 103.67 54.01 L 103.33 53.16 L 102.97 52.32 L 102.59 51.48 L 102.18 50.66 L 101.75 49.85 L 101.3 49.05 L 100.84 48.26 L 100.35 47.48 L 99.84 46.72 L 99.31 45.97 L 98.76 45.24 L 98.19 44.52 L 97.6 43.81 L 97.0 43.12 L 96.38 42.45 L 95.73 41.79 L 95.08 41.15 L 94.4 40.53 L 93.71 39.92 L 93.01 39.33 L 92.29 38.77 L 91.55 38.22 L 90.8 37.69 L 90.04 37.18 L 89.26 36.69 L 88.48 36.22 L 87.68 35.77 L 86.86 35.34 L 86.04 34.94 L 85.21 34.55 L 84.36 34.19 L 83.51 33.85 L 82.65 33.53 L 81.78 33.24 L 80.91 32.97 L 80.02 32.72 L 79.13 32.49 L 78.24 32.29 L 77.34 32.11 L 76.44 31.96 L 75.53 31.82 L 74.62 31.72 L 73.7 31.63 L 72.79 31.57 L 71.87 31.54 L 70.95 31.52 L 69.46 31.54 L 67.97 31.6 L 66.48 31.7 L 65.0 31.84 L 63.52 32.01 L 62.04 32.22 L 60.57 32.48 L 59.11 32.77 L 57.66 33.1 L 56.21 33.46 L 54.78 33.87 L 53.35 34.31 L 51.94 34.79 L 50.54 35.31 L 49.16 35.86 L 47.79 36.45 L 46.43 37.07 L 45.1 37.73 L 43.78 38.43 L 42.48 39.15 L 41.19 39.92 L 39.93 40.71 L 38.69 41.54 L 37.48 42.4 L 36.28 43.29 L 35.11 44.22 L 33.96 45.17 L 32.84 46.15 L 31.75 47.16 L 30.68 48.2 L 29.64 49.27 L 28.63 50.37 L 27.65 51.49 L 26.69 52.63 L 25.77 53.81 L 24.88 55.0 L 24.02 56.22 L 23.19 57.46 L 22.39 58.72 L 21.63 60.0 L 20.9 61.3 L 20.21 62.62 L 19.55 63.96 L 18.92 65.31 L 18.34 66.68 L 17.78 68.07 L 17.27 69.47 L 16.79 70.88 L 16.35 72.3 L 15.94 73.74 L 15.57 75.18 L 15.24 76.64 L 14.95 78.1 L 14.7 79.57 L 14.49 81.04 L 14.31 82.52 L 14.18 84.01 L 14.08 85.5 L 14.02 86.99 L 14.0 88.48" fill="none" stroke="url(#gs)" stroke-width="8.6" stroke-linecap="round" stroke-linejoin="round"/></svg>